<?xml version="1.0" encoding="UTF-8"?>
<svg id="Layer_1" xmlns="http://www.w3.org/2000/svg" version="1.1" viewBox="0 0 800 800">
  <!-- Generator: Adobe Illustrator 30.1.0, SVG Export Plug-In . SVG Version: 2.1.1 Build 136)  -->
  <defs>
    <style>
      .st0 {
        fill: #f3e8df;
      }
    </style>
  </defs>
  <path class="st0" d="M48.63,6h698.09c23.66,0,44.98,21.32,44.98,44.98v698.09c0,23.66-21.32,44.98-44.98,44.98H48.63c-23.66,0-44.98-21.32-44.98-44.98V50.98C3.65,27.32,24.97,6,48.63,6ZM563.28,448.49h108.85l4.73-104.12h-113.58v-76.9c0-29.57,5.91-46.15,43.77-46.15h66.26l2.39-97.04s-29.57-4.73-72.16-4.73c-104.12,0-150.27,65.08-150.27,134.9v89.92h-76.9v104.12h76.9v288.69h110.03v-288.69Z"/>
</svg>